<svg width="24" height="24" viewBox="0 0 24 24" fill="none" xmlns="http://www.w3.org/2000/svg">
<path d="M12 23.25C12.6909 23.25 13.25 22.6903 13.25 22C13.25 21.3098 12.6909 20.75 12 20.75C7.17575 20.75 3.25 16.8249 3.25 12C3.25 7.17513 7.17575 3.25 12 3.25C14.4852 3.25 16.8222 4.328 18.4621 6.127L16.2236 6.53C15.5449 6.65263 15.0932 7.30275 15.2154 7.982C15.324 8.58688 15.8514 9.0105 16.4446 9.0105C16.5179 9.0105 16.5924 9.00438 16.668 8.991L21.8877 8.0505C22.2136 7.99125 22.503 7.80513 22.6922 7.53288C22.8815 7.26063 22.9547 6.92438 22.8961 6.59838L21.955 1.37863C21.8317 0.699253 21.1896 0.244628 20.5024 0.369753C19.8236 0.492378 19.372 1.1425 19.4941 1.82175L19.8842 3.98275C17.8056 1.94513 14.9799 0.750003 12 0.750003C5.79637 0.750003 0.75 5.797 0.75 12C0.75 18.203 5.79637 23.25 12 23.25Z" fill="#464646"/>
<path d="M22 13.25C22.6904 13.25 23.25 12.6904 23.25 12C23.25 11.3096 22.6904 10.75 22 10.75C21.3096 10.75 20.75 11.3096 20.75 12C20.75 12.6904 21.3096 13.25 22 13.25Z" fill="#464646"/>
<path d="M21.7429 17.625C22.088 17.0271 21.8831 16.2626 21.2854 15.9175C20.6875 15.5723 19.923 15.7771 19.5779 16.375C19.2326 16.9729 19.4375 17.7373 20.0354 18.0825C20.6331 18.4278 21.3976 18.2229 21.7429 17.625ZM17.625 21.7428C18.2229 21.3976 18.4277 20.6331 18.0825 20.0353C17.7374 19.4374 16.9727 19.2325 16.375 19.5778C15.7771 19.923 15.5722 20.6875 15.9175 21.2853C16.2626 21.8831 17.0271 22.088 17.625 21.7428ZM12 7C11.3091 7 10.75 7.55975 10.75 8.25V12C10.75 12.3314 10.8819 12.6494 11.1163 12.8838L13.6163 15.3838C13.8604 15.6279 14.1801 15.75 14.5 15.75C14.8199 15.75 15.1396 15.6279 15.3837 15.3838C15.872 14.8955 15.872 14.1045 15.3837 13.6161L13.25 11.4824V8.25C13.25 7.55975 12.6909 7 12 7Z" fill="#464646"/>
</svg>
